<svg xmlns="http://www.w3.org/2000/svg" viewBox="0 0 100 100" width="100" height="100">
  <!-- 5. CON TEXTURA (BRUSH) -->
  <!-- Base fill for the solid body -->
  <path
    d="M50,82
       C50,82 12,58 12,33
       C12,18 23,10 35,10
       C42,10 48,14 50,19
       C52,14 58,10 65,10
       C77,10 88,18 88,33
       C88,58 50,82 50,82 Z"
    fill="#C85A3C"
    stroke="#C85A3C"
    stroke-width="2"
    stroke-dasharray="0.5 2"
    stroke-linejoin="round"
    stroke-linecap="round"
    opacity="0.9"
  />
  <!-- Rough brush overlay for texture effect -->
  <path
    d="M50,82
       C48,80 30,66 18,50
       C10,40 10,30 14,24
       C18,17 26,12 35,12
       C41,12 47,15 50,20"
    fill="none"
    stroke="#C85A3C"
    stroke-width="3"
    stroke-dasharray="4 3"
    stroke-linecap="round"
    opacity="0.35"
  />
  <path
    d="M50,20
       C53,15 59,12 65,12
       C74,12 82,17 86,24
       C90,31 89,42 82,51
       C72,63 57,75 50,82"
    fill="none"
    stroke="#C85A3C"
    stroke-width="3"
    stroke-dasharray="4 3"
    stroke-linecap="round"
    opacity="0.35"
  />
</svg>
